<svg width="200" height="220" viewBox="0 0 200 220" xmlns="http://www.w3.org/2000/svg">
  <title>Add9 - Hub-Styled (SPEC 010 v3.3)</title>

  <!-- Background -->
  <rect width="200" height="220" fill="#1a1a2e"/>

  <!-- Reference circle -->
  <circle cx="100" cy="100" r="70" fill="none" stroke="#333" stroke-width="0.5"/>

  <!-- Unified shape: arms at 0째 (1), 60째 (9), 120째 (3), 210째 (5) with straight edges -->
  <!-- No 7th - visible gap between 5 and 9 -->
  <path d="M 94.6 79.7
           L 100 30
           L 105.4 79.7
           A 21 21 0 0 1 118.2 88.2
           L 138 70
           L 114.8 94.6
           A 21 21 0 0 1 120.3 105.4
           L 160.6 135
           L 114.8 114.8
           A 21 21 0 0 1 94.6 120.3
           L 65 160.6
           L 85.2 114.8
           A 21 21 0 0 1 94.6 79.7 Z"
        fill="#4a9eff" fill-opacity="0.6" stroke="#4a9eff" stroke-width="2" stroke-linejoin="round"/>

  <!-- Labels -->
  <text x="100" y="18" text-anchor="middle" fill="#888" font-size="11" font-family="system-ui">1</text>
  <text x="150" y="60" text-anchor="middle" fill="#888" font-size="11" font-family="system-ui">9</text>
  <text x="175" y="145" text-anchor="middle" fill="#888" font-size="11" font-family="system-ui">3</text>
  <text x="50" y="175" text-anchor="middle" fill="#888" font-size="11" font-family="system-ui">5</text>

  <!-- Chord name -->
  <text x="100" y="200" text-anchor="middle" fill="#eee" font-size="18" font-weight="bold" font-family="system-ui">Add9</text>
  <text x="100" y="215" text-anchor="middle" fill="#888" font-size="10" font-family="system-ui">1-3-5-9 | circular hub, no 7th</text>
</svg>
