<svg width="200" height="220" viewBox="0 0 200 220" xmlns="http://www.w3.org/2000/svg">
  <title>Dominant 7♯9 - Hub-Styled (SPEC 010 v3.3)</title>

  <!-- Background -->
  <rect width="200" height="220" fill="#1a1a2e"/>

  <!-- Reference circle -->
  <circle cx="100" cy="100" r="70" fill="none" stroke="#333" stroke-width="0.5"/>

  <!-- Unified shape: arms at 0° (1), 120° (3), 210° (5), 300° (♭7) with straight edges -->
  <path d="M 94.6 79.7
           L 100 30
           L 105.4 79.7
           A 21 21 0 0 1 120.3 105.4
           L 160.6 135
           L 114.8 114.8
           A 21 21 0 0 1 94.6 120.3
           L 65 160.6
           L 85.2 114.8
           A 21 21 0 0 1 79.7 94.6
           L 65 65
           L 94.6 79.7 Z"
        fill="#4a9eff" fill-opacity="0.6" stroke="#4a9eff" stroke-width="2" stroke-linejoin="round"/>

  <!-- Line for ♯9 (chromatic alteration) at 90° - NOT a filled arm -->
  <line x1="121" y1="100" x2="165" y2="100" stroke="#ff6b6b" stroke-width="3" stroke-linecap="round"/>

  <!-- Labels -->
  <text x="100" y="18" text-anchor="middle" fill="#888" font-size="11" font-family="system-ui">1</text>
  <text x="180" y="95" text-anchor="middle" fill="#ff6b6b" font-size="11" font-family="system-ui">♯9</text>
  <text x="175" y="145" text-anchor="middle" fill="#888" font-size="11" font-family="system-ui">3</text>
  <text x="50" y="175" text-anchor="middle" fill="#888" font-size="11" font-family="system-ui">5</text>
  <text x="50" y="55" text-anchor="middle" fill="#888" font-size="11" font-family="system-ui">♭7</text>

  <!-- Chord name -->
  <text x="100" y="200" text-anchor="middle" fill="#eee" font-size="18" font-weight="bold" font-family="system-ui">Dominant 7♯9</text>
  <text x="100" y="215" text-anchor="middle" fill="#888" font-size="10" font-family="system-ui">1-3-5-♭7-♯9 | ♯9 as line</text>
</svg>
