<svg width="200" height="220" viewBox="0 0 200 220" xmlns="http://www.w3.org/2000/svg">
  <title>Half-Diminished - Unified Shape (SPEC 010 v3.2)</title>

  <!-- Background -->
  <rect width="200" height="220" fill="#1a1a2e"/>

  <!-- Reference circle -->
  <circle cx="100" cy="100" r="70" fill="none" stroke="#333" stroke-width="0.5"/>

  <!-- Unified shape: arms at 0° (1), 90° (♭3), 180° (♭5), 300° (♭7) with concave edges -->
  <path d="M 94.6 79.7
           Q 100 60 100 30
           Q 100 60 105.4 79.7
           A 21 21 0 0 1 120.3 94.6
           Q 140 100 170 100
           Q 140 100 120.3 105.4
           A 21 21 0 0 1 105.4 120.3
           Q 100 140 100 170
           Q 100 140 94.6 120.3
           A 21 21 0 0 1 79.7 94.6
           Q 70 75 65 65
           Q 82 80 94.6 79.7 Z"
        fill="#4a9eff" fill-opacity="0.6" stroke="#4a9eff" stroke-width="2" stroke-linejoin="round"/>

  <!-- Labels -->
  <text x="100" y="18" text-anchor="middle" fill="#888" font-size="11" font-family="system-ui">1</text>
  <text x="183" y="105" text-anchor="middle" fill="#888" font-size="11" font-family="system-ui">♭3</text>
  <text x="100" y="188" text-anchor="middle" fill="#888" font-size="11" font-family="system-ui">♭5</text>
  <text x="50" y="55" text-anchor="middle" fill="#888" font-size="11" font-family="system-ui">♭7</text>

  <!-- Chord name -->
  <text x="100" y="200" text-anchor="middle" fill="#eee" font-size="16" font-weight="bold" font-family="system-ui">Half-Diminished</text>
  <text x="100" y="215" text-anchor="middle" fill="#888" font-size="10" font-family="system-ui">1-♭3-♭5-♭7 | concave edges</text>
</svg>
