<svg width="200" height="220" viewBox="0 0 200 220" xmlns="http://www.w3.org/2000/svg">
  <title>Power Chord (5) - Hub-Styled (SPEC 010 v3.3)</title>

  <!-- Background -->
  <rect width="200" height="220" fill="#1a1a2e"/>

  <!-- Reference circle -->
  <circle cx="100" cy="100" r="70" fill="none" stroke="#333" stroke-width="0.5"/>

  <!-- Unified shape: arms at 0° (1) and 210° (5); zigzag hub indicates quality-ambiguous -->
  <!-- Globally-aligned teeth at (k+0.5)*15°; each spoke covers 2 hidden tooth positions -->
  <path d="M 94.6 79.7
           L 100.0 30.0
           L 105.4 79.7
           L 106.5 84.3 L 115.2 80.2 L 113.5 89.7 L 123.1 90.4 L 116.9 97.8 L 124.8 103.3
           L 115.7 106.5 L 119.8 115.2 L 110.3 113.5 L 109.6 123.1 L 102.2 116.9 L 96.7 124.8
           L 94.6 120.3
           L 65.0 160.6
           L 85.2 114.8
           L 86.5 110.3 L 76.9 109.6 L 83.1 102.2 L 75.2 96.7 L 84.3 93.5 L 80.2 84.8
           L 89.7 86.5 L 90.4 76.9
           L 94.6 79.7 Z"
        fill="#4a9eff" fill-opacity="0.6" stroke="#4a9eff" stroke-width="2" stroke-linejoin="round"/>

  <!-- Labels -->
  <text x="100" y="18" text-anchor="middle" fill="#888" font-size="11" font-family="system-ui">1</text>
  <text x="50" y="175" text-anchor="middle" fill="#888" font-size="11" font-family="system-ui">5</text>

  <!-- Chord name -->
  <text x="100" y="200" text-anchor="middle" fill="#eee" font-size="18" font-weight="bold" font-family="system-ui">Power (5)</text>
  <text x="100" y="215" text-anchor="middle" fill="#888" font-size="10" font-family="system-ui">1-5 | zigzag hub (no third)</text>
</svg>
